# Blender v2.90.1 OBJ File: 'House.blend'
# www.blender.org
o House_Cube
v 3.875880 0.156668 -3.875880
v 3.875880 -0.156668 -3.875880
v 3.875880 0.156668 3.875880
v 3.875880 -0.156668 3.875880
v -3.875880 0.156668 -3.875880
v -3.875880 -0.156668 -3.875880
v -3.875880 0.156668 3.875880
v -3.875880 -0.156668 3.875880
v 3.465995 0.156668 3.465995
v -3.465995 0.156668 3.465995
v 3.465995 0.156668 -3.465995
v -3.465995 0.156668 -3.465995
v 1.291960 -0.156668 -3.875880
v -1.291960 -0.156668 -3.875880
v 1.291960 0.156668 3.875880
v -1.291960 0.156668 3.875880
v -1.291960 -0.156668 3.875880
v 1.291960 -0.156668 3.875880
v -1.291960 0.156668 -3.875880
v 1.291960 0.156668 -3.875880
v 1.155331 0.156668 3.465995
v -1.155332 0.156668 3.465995
v -1.155331 0.156668 -3.465995
v 1.155332 0.156668 -3.465995
v -1.291960 4.142971 3.875880
v -3.875880 4.142971 3.875880
v 3.875880 4.142971 -3.875880
v 3.875880 4.142971 3.875880
v -3.875880 4.142971 -3.875880
v 1.291960 4.142971 -3.875880
v -1.155332 4.142971 3.465995
v -3.465995 4.142971 3.465995
v 3.465995 4.142971 -3.465995
v 3.465995 4.142971 3.465995
v -3.465995 4.142971 -3.465995
v 1.155332 4.142971 -3.465995
v 1.291960 4.142971 3.875880
v -1.291960 4.142971 -3.875880
v 1.155331 4.142971 3.465995
v -1.155331 4.142971 -3.465995
v 1.155331 3.756551 3.465995
v -1.155332 3.756551 3.465995
v -3.465995 3.756551 3.465995
v -3.465995 3.756551 -3.465995
v -3.875880 3.756551 3.875880
v -1.291960 3.756551 3.875880
v 3.875880 3.756551 -3.875880
v 3.875880 3.756551 3.875880
v 1.291960 3.756551 3.875880
v 3.465995 3.756551 -3.465995
v 1.155332 3.756551 -3.465995
v -1.155331 3.756551 -3.465995
v -3.875880 3.756551 -3.875880
v 1.291960 3.756551 -3.875880
v -1.291960 3.756551 -3.875880
v 3.465995 3.756551 3.465995
v -1.291960 4.515236 3.875880
v -3.875880 4.515236 3.875880
v 3.875880 4.515236 -3.875880
v 3.875880 4.515236 3.875880
v -3.875880 4.515236 -3.875880
v 1.291960 4.515236 -3.875880
v -1.155332 4.515236 3.465995
v -3.465995 4.515236 3.465995
v 3.465995 4.515236 -3.465995
v 3.465995 4.515236 3.465995
v -3.465995 4.515236 -3.465995
v 1.155332 4.515236 -3.465995
v 1.291960 4.515236 3.875880
v -1.291960 4.515236 -3.875880
v 1.155331 4.515236 3.465995
v -1.155331 4.515236 -3.465995
v 1.045953 6.581085 -1.045953
v 1.045953 6.581085 1.045953
v -1.045953 6.581085 1.045953
v -1.045953 6.581085 -1.045953
vt 0.830938 0.516190
vt 0.824049 0.544691
vt 0.824049 0.516190
vt 0.223800 0.626872
vt 0.214957 0.600342
vt 0.223800 0.600342
vt 0.182136 0.969501
vt 0.209031 0.996395
vt 0.182136 0.996395
vt 0.032459 0.626209
vt 0.381604 0.742590
vt 0.032459 0.742590
vt 0.112836 0.969949
vt 0.139371 0.996484
vt 0.112836 0.996484
vt 0.157961 0.622437
vt 0.148953 0.595414
vt 0.157961 0.595414
vt 0.316400 0.127726
vt 0.441388 0.502690
vt 0.316400 0.502690
vt 0.844716 0.516190
vt 0.837827 0.544691
vt 0.837827 0.516190
vt 0.241486 0.931668
vt 0.232643 0.964385
vt 0.232643 0.931668
vt 0.112836 0.665095
vt 0.139371 0.632372
vt 0.139371 0.665095
vt 0.848237 0.547986
vt 0.851222 0.561558
vt 0.853631 0.548052
vt 0.846813 0.305470
vt 0.867416 0.277057
vt 0.867416 0.305470
vt 0.223800 0.931668
vt 0.214957 0.964385
vt 0.214957 0.931668
vt 0.323791 0.105555
vt 0.191412 0.127726
vt 0.184022 0.105555
vt 0.066424 0.502690
vt 0.066424 0.127726
vt 0.191412 0.502690
vt 0.175976 0.622437
vt 0.166968 0.595414
vt 0.175976 0.595414
vt 0.166968 0.622437
vt 0.032459 0.858972
vt 0.381604 0.975354
vt 0.032459 0.975354
vt 0.381604 0.858972
vt 0.241486 0.626872
vt 0.232643 0.600342
vt 0.241486 0.600342
vt 0.232643 0.626872
vt 0.182136 0.627344
vt 0.209031 0.595391
vt 0.209031 0.627344
vt 0.000000 0.000000
vt 0.000000 0.000000
vt 0.000000 0.000000
vt 0.850268 0.561544
vt 0.850879 0.561699
vt 0.112836 0.632372
vt 0.139371 0.600846
vt 0.851027 0.561594
vt 0.852052 0.562362
vt 0.223800 0.964385
vt 0.214957 0.995904
vt 0.844716 0.544691
vt 0.837827 0.572147
vt 0.182136 0.660511
vt 0.209031 0.660511
vt 0.157961 0.932904
vt 0.148953 0.966231
vt 0.148953 0.932904
vt 0.175976 0.932904
vt 0.166968 0.966231
vt 0.166968 0.932904
vt 0.625000 0.416667
vt 0.625000 0.416667
vt 0.625000 0.416667
vt 0.842772 0.548486
vt 0.625000 0.333333
vt 0.625000 0.333333
vt 0.625000 0.333333
vt 0.798281 0.307747
vt 0.818790 0.279463
vt 0.818790 0.307747
vt 0.859085 0.548687
vt 0.858217 0.250338
vt 0.865962 0.250338
vt 0.798281 0.571241
vt 0.818790 0.571241
vt 0.306922 0.958892
vt 0.253430 0.788913
vt 0.309884 0.957944
vt 0.842743 0.250338
vt 0.850479 0.250338
vt 0.309884 0.603185
vt 0.250692 0.771264
vt 0.306946 0.602166
vt 0.148953 0.622437
vt 0.209031 0.969501
vt 0.214957 0.626872
vt 0.846813 0.570162
vt 0.867416 0.570162
vt 0.139371 0.969949
vt 0.844716 0.250676
vt 0.837827 0.250676
vt 0.830938 0.250676
vt 0.824049 0.250676
vt 0.166968 0.998336
vt 0.157961 0.966231
vt 0.250468 0.789861
vt 0.175976 0.966231
vt 0.365828 0.629250
vt 0.041977 0.647330
vt 0.023898 0.629250
vt 0.365828 0.857204
vt 0.347749 0.953101
vt 0.347749 0.851177
vt 0.023897 0.743227
vt 0.041978 0.749254
vt 0.023897 0.971181
vt 0.365828 0.971181
vt 0.023897 0.857204
vt 0.041977 0.953101
vt 0.041978 0.851177
vt 0.365828 0.743227
vt 0.347749 0.647330
vt 0.621430 0.806136
vt 0.469813 0.945656
vt 0.469824 0.665404
vt 0.830938 0.544691
vt 0.824049 0.572147
vt 0.849409 0.562321
vt 0.148953 0.998336
vt 0.850704 0.561682
vt 0.241486 0.964385
vt 0.232643 0.995904
vt 0.223800 0.995904
vt 0.682380 0.874323
vt 0.544009 0.735951
vt 0.682380 0.735952
vt 0.610147 0.794298
vt 0.748611 0.944863
vt 0.597003 0.804131
vt 0.748611 0.664619
vt 0.608286 0.815966
vt 0.867416 0.249685
vt 0.846813 0.277057
vt 0.846814 0.249685
vt 0.818790 0.252215
vt 0.798281 0.279463
vt 0.798281 0.252215
vt 0.543107 0.102540
vt 0.092697 0.552951
vt 0.092697 0.102540
vt 0.381604 0.626209
vt 0.441388 0.127726
vt 0.182136 0.595391
vt 0.000000 0.000000
vt 0.112836 0.600847
vt 0.844716 0.572147
vt 0.625000 0.416667
vt 0.625000 0.333333
vt 0.253630 0.772282
vt 0.157961 0.998336
vt 0.175976 0.998336
vt 0.347748 0.749254
vt 0.830938 0.572147
vt 0.850436 0.561553
vt 0.241486 0.995904
vt 0.544009 0.874323
vt 0.543107 0.552951
vn 0.0000 0.0000 1.0000
vn -1.0000 0.0000 0.0000
vn 0.0000 -1.0000 0.0000
vn 1.0000 0.0000 0.0000
vn 0.0000 0.0000 -1.0000
vn 0.0000 1.0000 0.0000
vn -0.9487 0.0000 -0.3162
vn 0.9487 0.0000 -0.3162
vn 0.0000 0.7606 0.6493
vn -0.6493 0.7606 0.0000
vn 0.0000 0.7606 -0.6493
vn 0.6493 0.7606 0.0000
s off
f 52/1/1 35/2/1 44/3/1
f 16/4/1 8/5/1 17/6/1
f 7/7/2 6/8/2 8/9/2
f 2/10/3 18/11/3 13/12/3
f 1/13/4 4/14/4 2/15/4
f 20/16/5 2/17/5 13/18/5
f 23/19/6 10/20/6 22/21/6
f 50/22/1 36/23/1 51/24/1
f 48/25/1 37/26/1 49/27/1
f 47/28/4 28/29/4 48/30/4
f 42/31/5 39/32/5 41/33/5
f 44/34/4 32/35/4 43/36/4
f 46/37/1 26/38/1 45/39/1
f 19/40/6 24/41/6 20/42/6
f 24/41/6 9/43/6 11/44/6
f 23/19/6 21/45/6 24/41/6
f 5/46/5 14/47/5 6/48/5
f 19/49/5 13/18/5 14/47/5
f 14/50/3 8/51/3 6/52/3
f 13/12/3 17/53/3 14/50/3
f 3/54/1 18/55/1 4/56/1
f 15/57/1 17/6/1 18/55/1
f 26/58/2 61/59/2 29/60/2
f 33/61/1 67/62/1 35/63/1
f 31/64/5 71/65/5 39/32/5
f 27/66/4 60/67/4 28/29/4
f 39/32/5 66/68/5 34/69/5
f 25/70/1 58/71/1 26/38/1
f 33/72/1 68/73/1 36/23/1
f 49/27/1 25/70/1 46/37/1
f 45/74/2 29/60/2 53/75/2
f 54/76/5 27/77/5 47/78/5
f 53/79/5 38/80/5 55/81/5
f 51/82/7 30/83/7 54/84/7
f 43/85/5 31/64/5 42/31/5
f 55/86/8 40/87/8 52/88/8
f 56/89/2 33/90/2 50/91/2
f 41/33/5 34/69/5 56/92/5
f 21/93/5 56/92/5 9/94/5
f 9/95/2 50/91/2 11/96/2
f 19/97/8 52/98/8 23/99/8
f 10/100/5 42/31/5 22/101/5
f 24/102/7 54/103/7 20/104/7
f 5/46/5 55/81/5 19/49/5
f 20/16/5 47/78/5 1/105/5
f 7/7/2 53/75/2 5/106/2
f 15/57/1 46/37/1 16/4/1
f 16/4/1 45/39/1 7/107/1
f 12/108/4 43/36/4 10/109/4
f 22/101/5 41/33/5 21/93/5
f 1/13/4 48/30/4 3/110/4
f 3/54/1 49/27/1 15/57/1
f 11/111/1 51/24/1 24/112/1
f 23/113/1 44/3/1 12/114/1
f 36/23/1 52/1/1 51/24/1
f 70/115/5 30/116/5 38/80/5
f 38/80/5 54/76/5 55/81/5
f 54/103/3 52/98/3 55/117/3
f 29/118/5 70/115/5 38/80/5
f 59/119/6 66/120/6 60/121/6
f 70/122/6 67/123/6 72/124/6
f 69/125/6 66/120/6 71/126/6
f 58/127/6 67/123/6 61/128/6
f 57/129/6 64/130/6 58/127/6
f 69/125/6 63/131/6 57/129/6
f 62/132/6 65/133/6 59/119/6
f 72/124/6 62/132/6 70/122/6
f 74/134/9 64/135/9 66/136/9
f 40/137/1 67/138/1 35/2/1
f 32/139/5 66/68/5 34/69/5
f 30/116/5 59/140/5 27/77/5
f 32/139/5 63/141/5 31/64/5
f 28/142/1 69/143/1 37/26/1
f 37/26/1 57/144/1 25/70/1
f 68/73/1 40/137/1 36/23/1
f 73/145/6 75/146/6 74/147/6
f 75/148/10 67/149/10 64/135/10
f 76/150/11 65/151/11 67/149/11
f 73/152/12 66/136/12 65/151/12
f 64/153/4 35/154/4 67/155/4
f 65/156/2 34/157/2 66/158/2
f 64/159/3 65/160/3 66/161/3
f 52/1/1 40/137/1 35/2/1
f 16/4/1 7/107/1 8/5/1
f 7/7/2 5/106/2 6/8/2
f 2/10/3 4/162/3 18/11/3
f 1/13/4 3/110/4 4/14/4
f 20/16/5 1/105/5 2/17/5
f 23/19/6 12/163/6 10/20/6
f 50/22/1 33/72/1 36/23/1
f 48/25/1 28/142/1 37/26/1
f 47/28/4 27/66/4 28/29/4
f 42/31/5 31/64/5 39/32/5
f 44/34/4 35/154/4 32/35/4
f 46/37/1 25/70/1 26/38/1
f 19/40/6 23/19/6 24/41/6
f 24/41/6 21/45/6 9/43/6
f 23/19/6 22/21/6 21/45/6
f 5/46/5 19/49/5 14/47/5
f 19/49/5 20/16/5 13/18/5
f 14/50/3 17/53/3 8/51/3
f 13/12/3 18/11/3 17/53/3
f 3/54/1 15/57/1 18/55/1
f 15/57/1 16/4/1 17/6/1
f 26/58/2 58/164/2 61/59/2
f 33/61/1 65/165/1 67/62/1
f 31/64/5 63/141/5 71/65/5
f 27/66/4 59/166/4 60/67/4
f 39/32/5 71/65/5 66/68/5
f 25/70/1 57/144/1 58/71/1
f 33/72/1 65/167/1 68/73/1
f 49/27/1 37/26/1 25/70/1
f 45/74/2 26/58/2 29/60/2
f 54/76/5 30/116/5 27/77/5
f 53/79/5 29/118/5 38/80/5
f 51/82/7 36/168/7 30/83/7
f 43/85/5 32/139/5 31/64/5
f 55/86/8 38/169/8 40/87/8
f 56/89/2 34/157/2 33/90/2
f 41/33/5 39/32/5 34/69/5
f 21/93/5 41/33/5 56/92/5
f 9/95/2 56/89/2 50/91/2
f 19/97/8 55/117/8 52/98/8
f 10/100/5 43/85/5 42/31/5
f 24/102/7 51/170/7 54/103/7
f 5/46/5 53/79/5 55/81/5
f 20/16/5 54/76/5 47/78/5
f 7/7/2 45/74/2 53/75/2
f 15/57/1 49/27/1 46/37/1
f 16/4/1 46/37/1 45/39/1
f 12/108/4 44/34/4 43/36/4
f 22/101/5 42/31/5 41/33/5
f 1/13/4 47/28/4 48/30/4
f 3/54/1 48/25/1 49/27/1
f 11/111/1 50/22/1 51/24/1
f 23/113/1 52/1/1 44/3/1
f 36/23/1 40/137/1 52/1/1
f 70/115/5 62/171/5 30/116/5
f 38/80/5 30/116/5 54/76/5
f 54/103/3 51/170/3 52/98/3
f 29/118/5 61/172/5 70/115/5
f 59/119/6 65/133/6 66/120/6
f 70/122/6 61/128/6 67/123/6
f 69/125/6 60/121/6 66/120/6
f 58/127/6 64/130/6 67/123/6
f 57/129/6 63/131/6 64/130/6
f 69/125/6 71/126/6 63/131/6
f 62/132/6 68/173/6 65/133/6
f 72/124/6 68/173/6 62/132/6
f 74/134/9 75/148/9 64/135/9
f 40/137/1 72/174/1 67/138/1
f 32/139/5 64/175/5 66/68/5
f 30/116/5 62/171/5 59/140/5
f 32/139/5 64/175/5 63/141/5
f 28/142/1 60/176/1 69/143/1
f 37/26/1 69/143/1 57/144/1
f 68/73/1 72/174/1 40/137/1
f 73/145/6 76/177/6 75/146/6
f 75/148/10 76/150/10 67/149/10
f 76/150/11 73/152/11 65/151/11
f 73/152/12 74/134/12 66/136/12
f 64/153/4 32/35/4 35/154/4
f 65/156/2 33/90/2 34/157/2
f 64/159/3 67/178/3 65/160/3
